<?xml version="1.0" encoding="utf-8"?>
<!-- Generator: Adobe Illustrator 26.5.0, SVG Export Plug-In . SVG Version: 6.00 Build 0)  -->
<svg version="1.1" id="Layer_1" xmlns="http://www.w3.org/2000/svg" xmlns:xlink="http://www.w3.org/1999/xlink" x="0px" y="0px"
	 viewBox="0 0 19.8 14.9" style="enable-background:new 0 0 19.8 14.9;" xml:space="preserve">
<style type="text/css">
	.st0{fill:url(#SVGID_1_);}
	.st1{fill:#2D2D2C;}
	.st2{fill:#424241;}
</style>
<g>
	<linearGradient id="SVGID_1_" gradientUnits="userSpaceOnUse" x1="5.4408" y1="10.2359" x2="19.6456" y2="10.2359">
		<stop  offset="0" style="stop-color:#FFFFFF"/>
		<stop  offset="0.3753" style="stop-color:#949494"/>
		<stop  offset="0.6798" style="stop-color:#444444"/>
		<stop  offset="0.8943" style="stop-color:#131313"/>
		<stop  offset="1" style="stop-color:#000000"/>
	</linearGradient>
	<path class="st0" d="M19.6,11.3l-2.2-5.2c-0.7,1.3-1,1.4-1.6,1.6c-0.9,0.3-1.3,0.5-3.3,0.9c-1.1,0.2-1.2,0.2-2.3,0.3
		c-1.4,0.1-2,0-2.3,0C7,8.8,6.5,8.4,6.1,8.2c-0.2,2-0.4,4.1-0.7,6.1c2.6-0.4,5.4-1,8.7-1.4c1.7-0.2,3.5-0.5,5-0.8
		C19.6,12,19.7,11.6,19.6,11.3z"/>
	<polygon class="st1" points="6.1,8.2 3.2,2 0.1,7.7 5.4,14.3 	"/>
	<path class="st2" d="M17.4,6.2c-0.9-1.8-1.8-3.5-2.6-5.3c-0.1-0.1-0.2-0.3-0.3-0.3C14.2,0.5,14,0.6,14,0.6
		c-1.8,0.2-3.5,0.5-5.3,0.8C7,1.6,5.3,1.8,3.5,1.8C3.1,1.9,3,2.6,3.2,3l2.4,4.6c0.3,0.6,0.9,1.1,1.6,1.3h0c1.4,0.2,3,0.2,4.7-0.1
		c0,0,0,0,0,0c0.8-0.1,5.5-0.9,5.6-2.2C17.5,6.4,17.4,6.3,17.4,6.2z"/>
</g>
</svg>
